<svg xmlns="http://www.w3.org/2000/svg" xmlns:xlink="http://www.w3.org/1999/xlink" width="80" height="80" viewBox="0 0 80 80" fill="none"><path     fill="#222222"  d="M0 62L0 18C0 8.05887 8.05887 0 18 0L62 0C71.9411 0 80 8.05887 80 18L80 62C80 71.9411 71.9411 80 62 80L18 80C8.05887 80 0 71.9411 0 62Z"></path><path d="M35.4157 20.0312L69.1656 20.0312C71.0218 20.0312 72.2593 21.55 71.9499 23.4062L65.9874 57.1562C65.6781 59.0125 63.8781 60.5312 62.0218 60.5312L28.272 60.5312C26.4157 60.5312 25.1782 59.0125 25.4876 57.1562L31.4501 23.4062C31.7595 21.55 33.5595 20.0312 35.4157 20.0312Z" fill-rule="evenodd"  fill="url(#linear_fill_29_11)" ></path><path d="M19.1876 40.2812L52.9374 40.2812C54.7937 40.2812 56.0593 41.8 55.7218 43.6562L53.3312 57.1562C53.0218 59.0125 51.2218 60.5312 49.3656 60.5312L15.6157 60.5312C13.7594 60.5312 12.5219 59.0125 12.8313 57.1562L15.2219 43.6562C15.5594 41.8 17.3313 40.2812 19.1876 40.2812Z" fill-rule="evenodd"  fill="url(#linear_fill_29_12)" fill-opacity="0.8"></path><path d="M16.1501 33.5312L26.2751 33.5312C28.1595 33.5312 29.397 35.05 29.0595 36.9062L25.4876 57.1562C25.1782 59.0125 23.3782 60.5312 21.5219 60.5312L11.397 60.5312C9.54069 60.5312 8.30319 59.0125 8.61257 57.1562L12.1845 36.9062C12.522 35.05 14.2938 33.5312 16.1501 33.5312Z" fill-rule="evenodd"  fill="url(#linear_fill_29_13)" ></path><path d="M22.7595 20.0312L41.3218 20.0312C43.1781 20.0312 44.4156 21.55 44.1062 23.4062L38.1438 57.1562C37.8344 59.0125 36.0345 60.5312 34.1782 60.5312L15.6157 60.5312C13.7594 60.5312 12.5219 59.0125 12.8313 57.1562L18.7938 23.4062C19.1032 21.55 20.9032 20.0312 22.7595 20.0312Z" fill-rule="evenodd"  fill="url(#linear_fill_29_14)" ></path><path d="M31.8438 40.2812L65.5937 40.2812C67.4499 40.2812 68.7156 41.8 68.3781 43.6562L65.9874 57.1562C65.6781 59.0125 63.8781 60.5312 62.0218 60.5312L28.272 60.5312C26.4157 60.5312 25.1782 59.0125 25.4876 57.1562L27.8782 43.6562C28.2157 41.8 29.9876 40.2812 31.8438 40.2812Z" fill-rule="evenodd"  fill="url(#linear_fill_29_15)" ></path><path d="M17.8375 52.825L18.9906 46.6093L25.7406 46.6093L24.5875 52.825L17.8375 52.825ZM13.0844 51.1375L14.8 41.6874L16.5156 41.6874L14.8 51.1375L13.0844 51.1375ZM15.1375 52.8812L17.3594 40.7312L19.1031 40.7312L16.8813 52.8812L15.1375 52.8812ZM18.2313 45.9062C19.3937 44.1999 20.2937 42.475 20.9313 40.7312L22.7594 40.7312L22.5344 41.4062L26.8937 41.4062L26.5844 43.1499L21.8594 43.1499C21.4094 44.1437 20.8938 45.0625 20.3125 45.9062L18.2313 45.9062ZM19.8344 51.2218L20.7062 51.2218L21.2406 48.1843L20.3969 48.1843L19.8344 51.2218ZM22.3375 43.6562L24.1094 43.6562L24.5031 46.075L22.7031 46.075L22.3375 43.6562ZM22.2531 51.2218L23.1531 51.2218L23.6875 48.1843L22.8156 48.1843L22.2531 51.2218ZM30.5781 52.8812L30.8875 51.1656L32.2094 51.1656L32.8281 47.8187L27.6813 47.8187L27.9906 46.1312L28.8344 46.1312L30.5219 43.3749L28.3281 43.3749L28.6375 41.6593L31.5625 41.6593L32.2375 40.5906L34.2344 40.5906L33.5875 41.6593L40.225 41.6593L39.9156 43.3749L32.5469 43.3749L30.8313 46.1312L33.1094 46.1312L33.475 44.1625L35.2469 44.1625L34.8812 46.1312L38.9875 46.1312L38.6781 47.8187L34.5719 47.8187L33.6438 52.8812L30.5781 52.8812ZM26.1344 52.5718C27.1844 51.1843 28.0187 49.8718 28.6375 48.6343L30.5219 48.6343C29.8656 49.9656 29.0875 51.2781 28.1875 52.5718L26.1344 52.5718ZM35.8094 48.6343L37.6656 48.6343C37.8531 49.8718 38.2094 51.1843 38.7344 52.5718L36.7094 52.5718C36.2781 51.2781 35.9781 49.9656 35.8094 48.6343ZM45.7656 52.7687C44.9407 52.7687 44.2657 52.7218 43.7406 52.6281C43.197 52.5343 42.7281 52.375 42.3344 52.1499C42.1468 52.5437 42.025 52.7875 41.9688 52.8812L40.1125 52.8812C40.7501 51.7187 41.2563 50.6312 41.6312 49.6187C42.025 48.6062 42.3437 47.5187 42.5875 46.3562L40.9844 46.3562L41.3219 44.5843L44.6688 44.5843C44.4626 45.7468 44.2376 46.7968 43.9938 47.7343C43.7313 48.6531 43.422 49.5625 43.0656 50.4625C43.422 50.6875 43.8343 50.8562 44.3031 50.9687C44.772 51.0624 45.3626 51.1093 46.075 51.1093L52.6844 51.1093L52.375 52.7687L45.7656 52.7687ZM42.5594 40.7312L44.3875 40.7312L44.7812 43.6843L42.9813 43.6843L42.5594 40.7312ZM44.1906 50.6593L45.5125 43.3749L47.4813 43.3749L47.2 42.475L49 42.475L49.2531 43.3749L50.1813 43.3749L50.9125 42.2499L45.7375 42.2499L46.0187 40.7312L53.8094 40.7312L52.0375 43.3749L53.6688 43.3749L52.3469 50.6593L50.6031 50.6593L50.8563 49.3375L49.3094 49.3375L49.0563 50.6593L47.4531 50.6593L47.6781 49.3375L46.1594 49.3375L45.9344 50.6593L44.1906 50.6593ZM46.4125 47.9312L47.9313 47.9312L48.0719 47.1156L46.5531 47.1156L46.4125 47.9312ZM46.8344 45.6812L48.3531 45.6812L48.4938 44.8656L46.975 44.8656L46.8344 45.6812ZM49.5625 47.9031L51.1094 47.9031L51.25 47.0875L49.7313 47.0875L49.5625 47.9031ZM49.9562 45.6531L51.5031 45.6531L51.6437 44.8375L50.0969 44.8375L49.9562 45.6531ZM13.6469 53.725L15.0531 53.725L14.1812 58.5062L16.5719 58.5062L16.375 59.6312L12.5781 59.6312L13.6469 53.725ZM17.3312 59.6312L18.4 53.725L20.65 53.725C21.5688 53.725 22.225 53.9874 22.6188 54.5125C23.0125 55.0375 23.125 55.7687 22.9562 56.7062C22.7687 57.6625 22.3937 58.3937 21.8312 58.8999C21.25 59.3874 20.4813 59.6312 19.525 59.6312L17.3312 59.6312ZM18.9344 58.5906L19.7781 58.5906C20.0219 58.5906 20.2656 58.5156 20.5094 58.3656C20.7531 58.2156 20.9594 58 21.1281 57.7187C21.3156 57.4187 21.4469 57.0812 21.5219 56.7062C21.5969 56.3499 21.5969 56.0218 21.5219 55.7218C21.4469 55.4406 21.3156 55.2156 21.1281 55.0468C20.9406 54.8781 20.725 54.7937 20.4813 54.7937L19.6094 54.7937L18.9344 58.5906ZM26.2188 53.725L29.0594 53.725C29.6781 53.725 30.1281 53.8937 30.4094 54.2312C30.7094 54.5499 30.8031 55.0187 30.6906 55.6375C30.5781 56.2374 30.3156 56.7062 29.9031 57.0437C29.4906 57.3812 28.975 57.5499 28.3563 57.5499L26.9219 57.5499L26.5281 59.6312L25.15 59.6312L26.2188 53.725ZM27.1188 56.4249L28.4125 56.4249C28.6938 56.4249 28.9281 56.3499 29.1156 56.2C29.2844 56.05 29.3969 55.8624 29.4531 55.6375C29.4906 55.4125 29.4438 55.2249 29.3125 55.075C29.2 54.9062 29.0031 54.8218 28.7219 54.8218L27.4 54.8218L27.1188 56.4249ZM34.7688 59.6312L34.6281 57.9718L32.7156 57.9718L31.9844 59.6312L30.4937 59.6312L33.2781 53.725L35.6125 53.725L36.2313 59.6312L34.7688 59.6312ZM33.1937 56.9593L34.5438 56.9593L34.3469 54.4843L34.3187 54.4843L33.1937 56.9593ZM39.3812 59.7437C39.325 59.7437 39.2313 59.7437 39.1 59.7437C38.35 59.7437 37.7031 59.5843 37.1594 59.2656L37.3844 58.0281C37.6656 58.2156 37.9844 58.3656 38.3406 58.4781C38.6781 58.6093 39.0063 58.6749 39.325 58.6749C39.5688 58.6749 39.7656 58.6187 39.9156 58.5062C40.0844 58.3749 40.1969 58.2343 40.2531 58.0843C40.3094 57.8593 40.2625 57.6531 40.1125 57.4656C39.9437 57.2968 39.6906 57.1562 39.3531 57.0437C38.9406 56.9124 38.6312 56.7718 38.425 56.6218C38.2 56.4906 38.05 56.3218 37.975 56.1156C37.9 55.9093 37.8906 55.6468 37.9469 55.3281C38.0031 55.0093 38.125 54.7281 38.3125 54.4843C38.5 54.2406 38.7531 54.0437 39.0719 53.8937C39.3719 53.7437 39.7188 53.6593 40.1125 53.6406C40.1688 53.6218 40.2531 53.6124 40.3656 53.6124C40.6656 53.6124 40.9563 53.6499 41.2375 53.725C41.5188 53.7812 41.753 53.8468 41.9406 53.9218L41.7438 55.0187C41.5376 54.925 41.2938 54.85 41.0125 54.7937C40.7313 54.7187 40.4781 54.6812 40.2531 54.6812C39.9719 54.6812 39.7469 54.7374 39.5781 54.85C39.4094 54.9437 39.3062 55.0843 39.2688 55.2718C39.2313 55.4406 39.2875 55.5812 39.4375 55.6937C39.5688 55.825 39.7938 55.9562 40.1125 56.0875C40.5062 56.2 40.8156 56.3312 41.0406 56.4812C41.2845 56.6312 41.4532 56.8281 41.5469 57.0718C41.6594 57.2968 41.6782 57.5968 41.6031 57.9718C41.5469 58.3093 41.4155 58.6093 41.2094 58.8718C41.0032 59.1343 40.7405 59.3406 40.4219 59.4906C40.1219 59.6406 39.775 59.7249 39.3812 59.7437ZM44.5281 59.7437C44.4719 59.7437 44.3782 59.7437 44.2469 59.7437C43.4782 59.7437 42.8313 59.5843 42.3063 59.2656L42.5312 58.0281C42.7937 58.2156 43.103 58.3656 43.4594 58.4781C43.8157 58.6093 44.1437 58.6749 44.4437 58.6749C44.6876 58.6749 44.8937 58.6187 45.0625 58.5062C45.2313 58.3749 45.3345 58.2343 45.3719 58.0843C45.447 57.8593 45.4 57.6531 45.2313 57.4656C45.0813 57.2968 44.8282 57.1562 44.4719 57.0437C44.0781 56.9124 43.7688 56.7718 43.5438 56.6218C43.3376 56.4906 43.1874 56.3218 43.0938 56.1156C43.0187 55.9093 43.0094 55.6468 43.0656 55.3281C43.1219 55.0093 43.2437 54.7281 43.4313 54.4843C43.6188 54.2406 43.872 54.0437 44.1906 53.8937C44.5093 53.7437 44.8656 53.6593 45.2594 53.6406C45.3156 53.6218 45.3907 53.6124 45.4844 53.6124C45.7845 53.6124 46.075 53.6499 46.3563 53.725C46.6375 53.7812 46.8718 53.8468 47.0594 53.9218L46.8625 55.0187C46.6563 54.925 46.4125 54.85 46.1313 54.7937C45.85 54.7187 45.5969 54.6812 45.3719 54.6812C45.0906 54.6812 44.8656 54.7374 44.6969 54.85C44.5281 54.9437 44.4249 55.0843 44.3875 55.2718C44.3687 55.4406 44.4249 55.5812 44.5563 55.6937C44.7062 55.825 44.9407 55.9562 45.2594 56.0875C45.6343 56.2 45.9437 56.3312 46.1875 56.4812C46.4125 56.6312 46.5812 56.8281 46.6938 57.0718C46.7874 57.2968 46.8063 57.5968 46.75 57.9718C46.6749 58.3093 46.5343 58.6093 46.3281 58.8718C46.122 59.1343 45.8688 59.3406 45.5688 59.4906C45.2501 59.6406 44.903 59.7249 44.5281 59.7437Z" fill-rule="evenodd"  fill="#FFFFFF" ></path><defs><linearGradient id="linear_fill_29_11" x1="25.44091796875" y1="40.28125" x2="71.9970703125" y2="40.28125" gradientUnits="userSpaceOnUse"><stop offset="0" stop-color="#EDEF59"  /><stop offset="1" stop-color="#EDEF59" stop-opacity="0" /></linearGradient><linearGradient id="linear_fill_29_12" x1="55.77001953125" y1="50.40625" x2="12.78466796875" y2="50.40625" gradientUnits="userSpaceOnUse"><stop offset="0" stop-color="#5FDF8C"  /><stop offset="1" stop-color="#5FDF8C" stop-opacity="0" /></linearGradient><linearGradient id="linear_fill_29_13" x1="29.116455078125" y1="47.03125" x2="8.56591796875" y2="47.03125" gradientUnits="userSpaceOnUse"><stop offset="0" stop-color="#2CA489"  /><stop offset="1" stop-color="#2CA489" stop-opacity="0" /></linearGradient><linearGradient id="linear_fill_29_14" x1="44.153076171875" y1="40.28125" x2="12.784423828125" y2="40.28125" gradientUnits="userSpaceOnUse"><stop offset="0" stop-color="#46D09E"  /><stop offset="1" stop-color="#46D09E" stop-opacity="0" /></linearGradient><linearGradient id="linear_fill_29_15" x1="68.42626953125" y1="50.40625" x2="25.44091796875" y2="50.40625" gradientUnits="userSpaceOnUse"><stop offset="0" stop-color="#5FDF8C"  /><stop offset="1" stop-color="#5FDF8C" stop-opacity="0" /></linearGradient></defs></svg>