<svg version="1.2" xmlns="http://www.w3.org/2000/svg" viewBox="0 0 256 256" width="256" height="256">
	<title>ldpass_icon</title>
	<defs>
		<linearGradient id="g1" x2="1" gradientUnits="userSpaceOnUse" gradientTransform="matrix(165.533,0,0,144,76.234,129)">
			<stop offset="0" stop-color="#edef59" stop-opacity="1"/>
			<stop offset="1" stop-color="#edef59" stop-opacity="0"/>
		</linearGradient>
		<linearGradient id="g2" x2="1" gradientUnits="userSpaceOnUse" gradientTransform="matrix(-152.837,0,0,-72,184.071,165)">
			<stop offset="0" stop-color="#5fdf8c" stop-opacity="1"/>
			<stop offset="1" stop-color="#5fdf8c" stop-opacity="0"/>
		</linearGradient>
		<linearGradient id="g3" x2="1" gradientUnits="userSpaceOnUse" gradientTransform="matrix(-73.069,0,0,-96,89.303,153)">
			<stop offset="0" stop-color="#2ca489" stop-opacity="1"/>
			<stop offset="1" stop-color="#2ca489" stop-opacity="0"/>
		</linearGradient>
		<linearGradient id="g4" x2="1" gradientUnits="userSpaceOnUse" gradientTransform="matrix(-111.533,0,0,-144,142.766,129)">
			<stop offset="0" stop-color="#46d09e" stop-opacity="1"/>
			<stop offset="1" stop-color="#46d09e" stop-opacity="0"/>
		</linearGradient>
		<linearGradient id="g5" x2="1" gradientUnits="userSpaceOnUse" gradientTransform="matrix(-152.837,0,0,-72,229.071,165)">
			<stop offset="0" stop-color="#5fdf8c" stop-opacity="1"/>
			<stop offset="1" stop-color="#5fdf8c" stop-opacity="0"/>
		</linearGradient>
	</defs>
	<style>
		tspan { white-space:pre }
		.s0 { fill: url(#g1) }
		.s1 { fill-opacity: .8;fill: url(#g2) }
		.s2 { fill: url(#g3) }
		.s3 { fill: url(#g4) }
		.s4 { fill: url(#g5) }
		.s5 { fill: #ffffff }
	</style>
	<g id="组 1 拷贝">
		<path id="矩形 1 拷贝 3" fill-rule="evenodd" class="s0" d="m111.7 57h120c6.6 0 11 5.4 9.9 12l-21.2 120c-1.1 6.6-7.5 12-14.1 12h-120c-6.6 0-11-5.4-9.9-12l21.2-120c1.1-6.6 7.5-12 14.1-12z"/>
		<path id="矩形 1 拷贝 4" fill-rule="evenodd" class="s1" d="m54 129h120c6.6 0 11.1 5.4 9.9 12l-8.5 48c-1.1 6.6-7.5 12-14.1 12h-120c-6.6 0-11-5.4-9.9-12l8.5-48c1.2-6.6 7.5-12 14.1-12z"/>
		<path id="矩形 1 拷贝 2" fill-rule="evenodd" class="s2" d="m43.2 105h36c6.7 0 11.1 5.4 9.9 12l-12.7 72c-1.1 6.6-7.5 12-14.1 12h-36c-6.6 0-11-5.4-9.9-12l12.7-72c1.2-6.6 7.5-12 14.1-12z"/>
		<path id="矩形 1" fill-rule="evenodd" class="s3" d="m66.7 57h66c6.6 0 11 5.4 9.9 12l-21.2 120c-1.1 6.6-7.5 12-14.1 12h-66c-6.6 0-11-5.4-9.9-12l21.2-120c1.1-6.6 7.5-12 14.1-12z"/>
		<path id="矩形 1 拷贝" fill-rule="evenodd" class="s4" d="m99 129h120c6.6 0 11.1 5.4 9.9 12l-8.5 48c-1.1 6.6-7.5 12-14.1 12h-120c-6.6 0-11-5.4-9.9-12l8.5-48c1.2-6.6 7.5-12 14.1-12z"/>
		<path id="临东通 LD PASS" fill-rule="evenodd" class="s5" d="m49.2 173.6l4.1-22.1h24l-4.1 22.1zm-16.9-6l6.1-33.6h6.1l-6.1 33.6zm7.3 6.2l7.9-43.2h6.2l-7.9 43.2zm11-24.8q6.2-9.1 9.6-18.4h6.5l-0.8 2.4h15.5l-1.1 6.2h-16.8q-2.4 5.3-5.5 9.8zm5.7 18.9h3.1l1.9-10.8h-3zm8.9-26.9h6.3l1.4 8.6h-6.4zm-0.3 26.9h3.2l1.9-10.8h-3.1zm29.6 5.9l1.1-6.1h4.7l2.2-11.9h-18.3l1.1-6h3l6-9.8h-7.8l1.1-6.1h10.4l2.4-3.8h7.1l-2.3 3.8h23.6l-1.1 6.1h-26.2l-6.1 9.8h8.1l1.3-7h6.3l-1.3 7h14.6l-1.1 6h-14.6l-3.3 18zm-15.8-1.1q5.6-7.4 8.9-14h6.7q-3.5 7.1-8.3 14zm34.4-14h6.6q1 6.6 3.8 14h-7.2q-2.3-6.9-3.2-14zm35.4 14.7q-4.4 0-7.2-0.5-2.9-0.5-5-1.7-1 2.1-1.3 2.6h-6.6q3.4-6.2 5.4-11.6 2.1-5.4 3.4-11.6h-5.7l1.2-6.3h11.9q-1.1 6.2-2.4 11.2-1.4 4.9-3.3 9.7 1.9 1.2 4.4 1.8 2.5 0.5 6.3 0.5h23.5l-1.1 5.9zm-11.4-42.8h6.5l1.4 10.5h-6.4zm5.8 35.3l4.7-25.9h7l-1-3.2h6.4l0.9 3.2h3.3l2.6-4h-18.4l1-5.4h27.7l-6.3 9.4h5.8l-4.7 25.9h-6.2l0.9-4.7h-5.5l-0.9 4.7h-5.7l0.8-4.7h-5.4l-0.8 4.7zm7.9-9.7h5.4l0.5-2.9h-5.4zm1.5-8h5.4l0.5-2.9h-5.4zm9.7 7.9h5.5l0.5-2.9h-5.4zm1.4-8h5.5l0.5-2.9h-5.5zm-129.1 28.7h5l-3.1 17h8.5l-0.7 4h-13.5zm13.1 21l3.8-21h8q4.9 0 7 2.8 2.1 2.8 1.2 7.8-1 5.1-4 7.8-3.1 2.6-8.2 2.6zm5.7-3.7h3q1.3 0 2.6-0.8 1.3-0.8 2.2-2.3 1-1.6 1.4-3.6 0.4-1.9 0-3.5-0.4-1.5-1.4-2.4-1-0.9-2.3-0.9h-3.1zm25.9-17.3h10.1q3.3 0 4.8 1.8 1.6 1.7 1 5-0.6 3.2-2.8 5-2.2 1.8-5.5 1.8h-5.1l-1.4 7.4h-4.9zm3.2 9.6h4.6q1.5 0 2.5-0.8 0.9-0.8 1.2-2 0.2-1.2-0.5-2-0.6-0.9-2.1-0.9h-4.7zm27.2 11.4l-0.5-5.9h-6.8l-2.6 5.9h-5.3l9.9-21h8.3l2.2 21zm-5.6-9.5h4.8l-0.7-8.8h-0.1zm22 9.9q-0.3 0-1 0-4 0-6.9-1.7l0.8-4.4q1.5 1 3.4 1.6 1.8 0.7 3.5 0.7 1.3 0 2.1-0.6 0.9-0.7 1.2-1.5 0.3-1.2-0.5-2.2-0.9-0.9-2.7-1.5-2.2-0.7-3.3-1.5-1.2-0.7-1.6-1.8-0.4-1.1-0.1-2.8 0.3-1.7 1.3-3 1-1.3 2.7-2.1 1.6-0.8 3.7-0.9 0.3-0.1 0.9-0.1 1.6 0 3.1 0.4 1.5 0.3 2.5 0.7l-0.7 3.9q-1.1-0.5-2.6-0.8-1.5-0.4-2.7-0.4-1.5 0-2.4 0.6-0.9 0.5-1.1 1.5-0.2 0.9 0.6 1.5 0.7 0.7 2.4 1.4 2.1 0.6 3.3 1.4 1.3 0.8 1.8 2.1 0.6 1.2 0.2 3.2-0.3 1.8-1.4 3.2-1.1 1.4-2.8 2.2-1.6 0.8-3.7 0.9zm18.3 0q-0.3 0-1 0-4.1 0-6.9-1.7l0.8-4.4q1.4 1 3.3 1.6 1.9 0.7 3.5 0.7 1.3 0 2.2-0.6 0.9-0.7 1.1-1.5 0.4-1.2-0.5-2.2-0.8-0.9-2.7-1.5-2.1-0.7-3.3-1.5-1.1-0.7-1.6-1.8-0.4-1.1-0.1-2.8 0.3-1.7 1.3-3 1-1.3 2.7-2.1 1.7-0.8 3.8-0.9 0.3-0.1 0.8-0.1 1.6 0 3.1 0.4 1.5 0.3 2.5 0.7l-0.7 3.9q-1.1-0.5-2.6-0.8-1.5-0.4-2.7-0.4-1.5 0-2.4 0.6-0.9 0.5-1.1 1.5-0.1 0.9 0.6 1.5 0.8 0.7 2.5 1.4 2 0.6 3.3 1.4 1.2 0.8 1.8 2.1 0.5 1.2 0.2 3.2-0.4 1.8-1.5 3.2-1.1 1.4-2.7 2.2-1.7 0.8-3.7 0.9z"/>
	</g>
</svg>
